<svg xmlns="http://www.w3.org/2000/svg" width="256" height="256"><path fill="#1976D2" fill-opacity=".016" fill-rule="evenodd" d="M0 128.004v128.004l128.25-.254 128.25-.254.254-127.75L257.008 0H0zm.485.496c0 70.4.119 99.053.265 63.672s.146-92.98 0-128S.485 58.1.485 128.5"/><path fill="#1976D2" fill-opacity=".055" fill-rule="evenodd" d="M103.5 1.974C63.94 9.91 30.769 35.364 12.612 71.717c-16.974 33.987-16.974 78.579 0 112.566 18.323 36.686 51.623 62.056 91.634 69.812 19.996 3.877 45.382 2.099 65.293-4.571 42.582-14.265 77.104-54.113 84.489-97.524.702-4.125 1.658-7.928 2.124-8.45 1.087-1.218 1.12-32.836.034-32.165-.448.277-1.395-2.948-2.103-7.166-7.322-43.573-41.836-83.401-84.761-97.811-19.504-6.547-46.293-8.352-65.822-4.434m28.6 43.731c.729 1.212 1.54 1.989 1.803 1.726s-.333-1.255-1.324-2.205c-1.722-1.649-1.744-1.628-.479.479m-7.35 12.957c.688.278 1.813.278 2.5 0 .688-.277.125-.504-1.25-.504s-1.937.227-1.25.504M119 60c-.825.533-1.05.969-.5.969s1.675-.436 2.5-.969 1.05-.969.5-.969-1.675.436-2.5.969m-6.054 4.75L109.5 68.5l3.75-3.446c2.063-1.896 3.75-3.583 3.75-3.75 0-.764-.846-.044-4.054 3.446M139 61.378c0 .207.787.995 1.75 1.75 1.586 1.243 1.621 1.208.378-.378-1.307-1.666-2.128-2.195-2.128-1.372m9.079 14.205c.048 1.165.285 1.402.604.605.289-.722.253-1.585-.079-1.917s-.568.258-.525 1.312M107.272 79c0 2.475.195 3.487.434 2.25.238-1.237.238-3.263 0-4.5-.239-1.237-.434-.225-.434 2.25m11.807.583c.048 1.165.285 1.402.604.605.289-.722.253-1.585-.079-1.917s-.568.258-.525 1.312m17 0c.048 1.165.285 1.402.604.605.289-.722.253-1.585-.079-1.917s-.568.258-.525 1.312m-9.829 8.106c.963.252 2.537.252 3.5 0 .963-.251.175-.457-1.75-.457s-2.713.206-1.75.457M106 106c-.589 1.1-.845 2-.57 2s.981-.9 1.57-2 .845-2 .57-2-.981.9-1.57 2m-27 5.5c1.866 1.925 3.617 3.5 3.892 3.5s-1.026-1.575-2.892-3.5-3.617-3.5-3.892-3.5 1.026 1.575 2.892 3.5m96.946.25-3.446 3.75 3.75-3.446c2.063-1.896 3.75-3.583 3.75-3.75 0-.764-.846-.044-4.054 3.446M.407 128c0 9.075.152 12.787.337 8.25s.185-11.963 0-16.5-.337-.825-.337 8.25m98.093-8c-.853 1.65-1.326 3-1.051 3s1.198-1.35 2.051-3 1.326-3 1.051-3-1.198 1.35-2.051 3m57.5-1c.589 1.1 1.295 2 1.57 2s.019-.9-.57-2-1.295-2-1.57-2-.019.9.57 2m8.5 16c.853 1.65 1.776 3 2.051 3s-.198-1.35-1.051-3-1.776-3-2.051-3 .198 1.35 1.051 3m-83 17c-.853 1.65-1.326 3-1.051 3s1.198-1.35 2.051-3 1.326-3 1.051-3-1.198 1.35-2.051 3m92 0c.853 1.65 1.776 3 2.051 3s-.198-1.35-1.051-3-1.776-3-2.051-3 .198 1.35 1.051 3m-30 6c.853 1.65 1.776 3 2.051 3s-.198-1.35-1.051-3-1.776-3-2.051-3 .198 1.35 1.051 3m-33.5 3c-.589 1.1-.845 2-.57 2s.981-.9 1.57-2 .845-2 .57-2-.981.9-1.57 2m-37 7c-.589 1.1-.845 2-.57 2s.981-.9 1.57-2 .845-2 .57-2-.981.9-1.57 2m109 0c.589 1.1 1.295 2 1.57 2s.019-.9-.57-2-1.295-2-1.57-2-.019.9.57 2M70.336 180c0 4.125.177 5.813.392 3.75s.216-5.437 0-7.5c-.215-2.062-.392-.375-.392 3.75m115 0c0 4.125.177 5.813.392 3.75s.216-5.437 0-7.5c-.215-2.062-.392-.375-.392 3.75"/><path fill="#1976D2" fill-opacity=".426" fill-rule="evenodd" d="M111.635 1.065c-27.641 3.831-52.176 15.73-72.021 34.928C20.071 54.899 8.063 76.81 2.344 104c-2.469 11.734-2.469 36.266 0 48 5.719 27.19 17.727 49.101 37.27 68.007C57.625 237.431 78.346 248.26 104 253.656c11.734 2.469 36.266 2.469 48 0 25.693-5.404 46.372-16.222 64.462-33.723 20.582-19.911 34.273-46.217 37.698-72.433.575-4.4 1.449-8.781 1.943-9.736 1.264-2.447 1.17-21.051-.103-20.264-.596.368-1-.837-1-2.983 0-5.3-2.727-17.765-6.13-28.017-10.148-30.576-34.582-58.321-64.647-73.407-7.915-3.971-21.358-8.463-31.723-10.599-9.624-1.984-31.374-2.745-40.865-1.429M128 50.368v7.369l-4.166.558c-13.508 1.812-21.12 18.346-14.328 31.12l2.506 4.714-21.006 39.43L70 172.99v15.059l6.136-3.902 6.136-3.901 21.013-39.55 21.013-39.549 5.101-.692c12.371-1.679 20.045-9.963 19.963-21.549-.053-7.45-3.332-13.415-9.567-17.406-4.646-2.974-4.687-3.048-4.741-8.576-.043-4.492-.504-5.998-2.368-7.75-3.929-3.69-4.686-2.851-4.686 5.194m-4.407 22.882c-4.087 3.652-4.339 7.158-.772 10.725C124.485 85.639 126.815 87 128 87s3.515-1.361 5.179-3.025c2.422-2.422 2.898-3.569 2.385-5.75C134.801 74.973 130.641 71 128 71c-1.039 0-3.022 1.013-4.407 2.25m-60.367 36.023-7.225 7.273 8.395 8.351c4.617 4.593 8.779 8.112 9.249 7.821s2.862-4.626 5.315-9.632l4.46-9.104-5.929-5.991c-3.26-3.295-6.179-5.991-6.485-5.991s-3.807 3.273-7.78 7.273m115.243-1.232-5.969 6.041 5 9.457c2.75 5.201 5.216 9.457 5.479 9.459.264.001 4.201-3.7 8.749-8.225l8.271-8.227-7.225-7.273c-3.973-4-7.474-7.273-7.78-7.273s-3.243 2.719-6.525 6.041m-28.981.978c-.346.56-2.851 2.145-5.566 3.521l-4.937 2.501 5.732 10.73c3.153 5.901 10.967 20.57 17.365 32.598l11.632 21.868 6.143 3.906 6.143 3.906v-15.056l-17.25-32.482c-9.488-17.865-17.561-32.488-17.941-32.496s-.974.444-1.321 1.004M.37 128c0 5.775.165 8.137.367 5.25s.202-7.612 0-10.5S.37 122.225.37 128m115.948 21.198c-.558.716-2.995 5.012-5.416 9.546l-4.402 8.245 10.75 10.75L128 188.488l10.75-10.767 10.75-10.767-5-9.475c-2.75-5.211-5.211-9.475-5.469-9.477-.257-.001-2.845 2.345-5.75 5.214L128 158.432l-5.334-5.268c-4.127-4.076-5.564-4.974-6.348-3.966"/><path fill="#1976D2" fill-opacity=".75" fill-rule="evenodd" d="M117.5 20.586C82.743 25.522 56.424 41.435 38.256 68.5 26.231 86.412 20.6 105.39 20.6 128c0 14.327.961 20.634 5.104 33.5 11.941 37.08 42.888 64.229 82.796 72.636 7.738 1.63 31.262 1.63 39 0 39.862-8.397 70.868-35.599 82.796-72.636 4.143-12.866 5.104-19.173 5.104-33.5s-.961-20.634-5.104-33.5C218.563 58.068 187.78 30.601 149.5 22.409c-7.052-1.509-26.434-2.613-32-1.823M128 49.482v7.295l-3.715.697c-5.308.996-8.427 2.834-12.544 7.39-6.173 6.834-7.371 15.585-3.245 23.717 1.373 2.705 2.498 5.264 2.5 5.686.002.423-9.446 18.506-20.996 40.186l-21 39.418v7.648c0 4.206.377 7.498.839 7.314.461-.183 3.518-2.084 6.794-4.225l5.957-3.892 21.1-39.608 21.1-39.608 5.507-.608c21.381-2.359 26.903-29.377 8.361-40.914-2.522-1.569-2.859-2.387-3-7.268-.166-5.796-2.026-9.05-5.723-10.017-1.783-.466-1.935.068-1.935 6.789m-4.826 24.832C118.844 78.924 121.767 86 128 86c6.323 0 9.294-7.497 4.686-11.826-3.003-2.82-6.782-2.765-9.512.14m-59.941 33.951C59.255 112.27 56 115.996 56 116.546 56 117.63 72.125 134 73.194 134c.359 0 2.952-4.368 5.763-9.708l5.11-9.707-6.8-6.801-6.801-6.8zm115.458-.457-6.759 6.811 5.172 9.441c2.845 5.192 5.349 9.641 5.565 9.887.575.656 17.331-16.215 17.331-17.45 0-.576-3.274-4.299-7.275-8.274l-7.275-7.226zm-29.706 1.213c-1.367 1.037-4.172 2.65-6.235 3.584-2.062.934-3.75 2.107-3.75 2.606s7.74 15.44 17.199 33.202l17.199 32.295 5.963 3.896c3.279 2.143 6.339 4.046 6.8 4.229.462.184.839-3.108.839-7.315v-7.649l-17.644-33.184c-9.704-18.252-17.699-33.267-17.765-33.367-.067-.099-1.239.667-2.606 1.703m-32.65 39.165c-.558.723-3.166 5.307-5.795 10.188l-4.78 8.875 11.12 11.12 11.12 11.12 11.129-11.129 11.129-11.13-5.379-10.109c-2.958-5.561-5.651-10.113-5.984-10.116s-2.881 2.402-5.663 5.343l-5.058 5.348-5.411-5.412c-4.204-4.203-5.639-5.118-6.428-4.098"/></svg>