<?xml version="1.0" standalone="no"?>
<!DOCTYPE svg PUBLIC "-//W3C//DTD SVG 20010904//EN"
 "http://www.w3.org/TR/2001/REC-SVG-20010904/DTD/svg10.dtd">
<svg version="1.0" xmlns="http://www.w3.org/2000/svg"
 width="248.000000pt" height="248.000000pt" viewBox="0 0 248.000000 248.000000"
 preserveAspectRatio="xMidYMid meet">
<metadata>
Created by potrace 1.14, written by Peter Selinger 2001-2017
</metadata>
<g transform="translate(0.000000,248.000000) scale(0.100000,-0.100000)"
fill="#000000" stroke="none">
<path d="M1118 2475 c-2 -1 -26 -5 -54 -9 -244 -29 -512 -164 -699 -351 -68
-69 -159 -185 -191 -245 -10 -19 -24 -42 -30 -50 -36 -47 -109 -270 -130 -395
-12 -72 -11 -271 1 -361 65 -464 387 -848 840 -1002 208 -70 497 -77 710 -17
437 123 773 467 879 900 45 185 42 435 -7 615 -130 472 -518 823 -1002 905
-40 7 -311 16 -317 10z"/>
</g>
</svg>
